<svg height="512pt" viewBox="-12 0 512 512.8" width="512pt" xmlns="http://www.w3.org/2000/svg"><path d="m336.398438 336c0 39.769531 72 128 72 128s72-88.230469 72-128c0-39.765625-32.234376-72-72-72-39.761719 0-72 32.234375-72 72zm108-7.199219c0 19.882813-16.117188 36-36 36-19.878907 0-36-16.117187-36-36 0-19.882812 16.121093-36 36-36 19.882812 0 36 16.117188 36 36zm0 0" fill="#d80027"/><path d="m444.398438 328.800781c0 19.882813-16.117188 36-36 36-19.878907 0-36-16.117187-36-36 0-19.882812 16.121093-36 36-36 19.882812 0 36 16.117188 36 36zm0 0" fill="#acabb1"/><path d="m84.398438 12c-39.761719 0-72 32.234375-72 72 0 39.769531 72 128 72 128s72-88.230469 72-128c0-39.765625-32.234376-72-72-72zm0 100.800781c-19.878907 0-36-16.117187-36-36 0-19.882812 16.121093-36 36-36 19.882812 0 36 16.117188 36 36 0 19.882813-16.117188 36-36 36zm0 0" fill="#d80027"/><path d="m120.398438 76.800781c0 19.882813-16.117188 36-36 36-19.878907 0-36-16.117187-36-36 0-19.882812 16.121093-36 36-36 19.882812 0 36 16.117188 36 36zm0 0" fill="#acabb1"/><path d="m248.398438 344.800781h-14.246094l14.246094 11.121094zm0 0" fill="#acabb1"/><path d="m80.398438 240.800781h20.496093l-20.496093-16zm0 0" fill="#acabb1"/><g fill="#231f20"><path d="m328.398438 336c0 41.414062 66.25 123.800781 73.808593 133.054688 1.519531 1.859374 3.792969 2.9375 6.191407 2.9375 2.402343 0 4.675781-1.078126 6.195312-2.9375 7.558594-9.253907 73.804688-91.640626 73.804688-133.054688 0-44.183594-35.816407-80-80-80-44.179688 0-80 35.816406-80 80zm144 0c0 27.441406-41.671876 86.542969-64 115.199219-22.328126-28.613281-64-87.71875-64-115.199219 0-35.347656 28.65625-64 64-64 35.347656 0 64 28.652344 64 64zm0 0"/><path d="m364.398438 328.800781c0 24.300781 19.699218 44 44 44 24.300781 0 44-19.699219 44-44s-19.699219-44-44-44c-24.285157.03125-43.96875 19.710938-44 44zm72 0c0 15.464844-12.535157 28-28 28-15.460938 0-28-12.535156-28-28 0-15.464843 12.539062-28 28-28 15.464843 0 28 12.535157 28 28zm0 0"/><path d="m408.398438 480.800781c-4.417969 0-8 3.582031-8 8v8h-264v-16h80c4.417968 0 8-3.582031 8-8v-24c0-4.417969-3.582032-8-8-8h-128v-40h160c4.417968 0 8-3.582031 8-8v-48c0-4.417969-3.582032-8-8-8h-224v-32h256c4.417968 0 8-3.582031 8-8v-32c0-4.417969-3.582032-8-8-8h-192v-24c0-4.417969-3.582032-8-8-8-4.417969 0-8 3.582031-8 8v32c0 4.417969 3.582031 8 8 8h192v16h-256c-4.417969 0-8 3.582031-8 8v48c0 4.417969 3.582031 8 8 8h224v32h-160c-4.417969 0-8 3.582031-8 8v56c0 4.417969 3.582031 8 8 8h128v8h-80c-4.417969 0-8 3.582031-8 8v32c0 4.417969 3.582031 8 8 8h280c4.417968 0 8-3.582031 8-8v-16c0-4.417969-3.582032-8-8-8zm0 0"/><path d="m280.398438 48.800781h160c4.417968 0 8-3.582031 8-8s-3.582032-8-8-8h-160c-4.417969 0-8 3.582031-8 8s3.582031 8 8 8zm0 0"/><path d="m280.398438 168.800781h160c4.417968 0 8-3.582031 8-8s-3.582032-8-8-8h-160c-4.417969 0-8 3.582031-8 8s3.582031 8 8 8zm0 0"/><path d="m280.398438 88.800781h104c4.417968 0 8-3.582031 8-8s-3.582032-8-8-8h-104c-4.417969 0-8 3.582031-8 8s3.582031 8 8 8zm0 0"/><path d="m440.398438 88.800781c4.417968 0 8-3.582031 8-8s-3.582032-8-8-8h-32c-4.417969 0-8 3.582031-8 8s3.582031 8 8 8zm0 0"/><path d="m280.398438 128.800781h32c4.417968 0 8-3.582031 8-8s-3.582032-8-8-8h-32c-4.417969 0-8 3.582031-8 8s3.582031 8 8 8zm0 0"/><path d="m328.398438 120.800781c0 4.417969 3.582031 8 8 8h104c4.417968 0 8-3.582031 8-8s-3.582032-8-8-8h-104c-4.417969 0-8 3.582031-8 8zm0 0"/><path d="m80.398438 216c2.40625.007812 4.683593-1.074219 6.195312-2.945312 7.558594-9.253907 73.804688-91.640626 73.804688-133.054688 0-44.183594-35.816407-80-80-80-44.179688 0-80 35.816406-80 80 0 41.414062 66.25 123.800781 73.808593 133.054688 1.511719 1.871093 3.789063 2.953124 6.191407 2.945312zm0-200c35.332031.039062 63.960937 28.671875 64 64 0 27.441406-41.671876 86.542969-64 115.199219-22.328126-28.65625-64-87.757813-64-115.199219.042968-35.328125 28.671874-63.960938 64-64zm0 0"/><path d="m124.398438 72.800781c0-24.300781-19.699219-44-44-44-24.300782 0-44 19.699219-44 44s19.699218 44 44 44c24.289062-.03125 43.972656-19.714843 44-44zm-72 0c0-15.464843 12.539062-28 28-28 15.464843 0 28 12.535157 28 28 0 15.464844-12.535157 28-28 28-15.460938 0-28-12.535156-28-28zm0 0"/></g></svg>