<svg xmlns="http://www.w3.org/2000/svg" viewBox="0 0 500 500"><g id="freepik--background-complete--inject-81"><rect x="95.12" y="322.65" width="68.79" height="130.55" style="fill:#e0e0e0"></rect><rect x="131.66" y="322.65" width="32.25" height="130.55" style="fill:#ebebeb"></rect><rect x="109.55" y="334.93" width="6.18" height="15.03" style="fill:#f5f5f5"></rect><rect x="109.55" y="393.74" width="6.18" height="15.03" style="fill:#f5f5f5"></rect><path d="M131.66,355.86c0,.13-8.18.23-18.27.23s-18.27-.1-18.27-.23,8.18-.24,18.27-.24S131.66,355.73,131.66,355.86Z" style="fill:#f5f5f5"></path><rect x="109.55" y="364.56" width="6.18" height="15.03" style="fill:#f5f5f5"></rect><path d="M131.66,385.49c0,.12-8.18.23-18.27.23s-18.27-.11-18.27-.23,8.18-.24,18.27-.24S131.66,385.36,131.66,385.49Z" style="fill:#f5f5f5"></path><rect x="138.51" y="334.93" width="6.18" height="15.03" style="fill:#e0e0e0"></rect><rect x="151.93" y="334.93" width="6.18" height="15.03" style="fill:#e0e0e0"></rect><rect x="138.51" y="363.45" width="6.18" height="15.03" style="fill:#e0e0e0"></rect><rect x="151.93" y="363.45" width="6.18" height="15.03" style="fill:#e0e0e0"></rect><rect x="138.51" y="391.96" width="6.18" height="15.03" style="fill:#e0e0e0"></rect><rect x="151.93" y="391.96" width="6.18" height="15.03" style="fill:#e0e0e0"></rect><rect x="89.95" y="319.49" width="79.13" height="3.27" style="fill:#e0e0e0"></rect><path d="M164.39,323.07c0,.13-15.37.23-34.33.23s-34.34-.1-34.34-.23,15.37-.23,34.34-.23S164.39,322.94,164.39,323.07Z" style="fill:#ebebeb"></path><rect x="49.92" y="371.61" width="61.58" height="81.22" style="fill:#ebebeb"></rect><rect x="82.63" y="371.61" width="28.87" height="81.22" style="fill:#e0e0e0"></rect><rect x="62.83" y="382.61" width="5.54" height="13.45" style="fill:#f5f5f5"></rect><rect x="62.83" y="435.26" width="5.54" height="13.45" style="fill:#f5f5f5"></rect><path d="M82.63,401.34c0,.15-7.33.27-16.36.27s-16.35-.12-16.35-.27,7.32-.28,16.35-.28S82.63,401.19,82.63,401.34Z" style="fill:#f5f5f5"></path><rect x="62.83" y="409.13" width="5.54" height="13.45" style="fill:#f5f5f5"></rect><path d="M82.63,427.86c0,.15-7.33.28-16.36.28s-16.35-.13-16.35-.28,7.32-.27,16.35-.27S82.63,427.71,82.63,427.86Z" style="fill:#f5f5f5"></path><rect x="88.76" y="382.61" width="5.54" height="13.45" style="fill:#f5f5f5"></rect><rect x="100.77" y="382.61" width="5.54" height="13.45" style="fill:#f5f5f5"></rect><rect x="88.76" y="408.13" width="5.54" height="13.45" style="fill:#f5f5f5"></rect><rect x="100.77" y="408.13" width="5.54" height="13.45" style="fill:#f5f5f5"></rect><rect x="88.76" y="433.66" width="5.54" height="13.45" style="fill:#f5f5f5"></rect><rect x="100.77" y="433.66" width="5.54" height="13.45" style="fill:#f5f5f5"></rect><rect x="45.29" y="368.78" width="70.84" height="2.93" style="fill:#e0e0e0"></rect><path d="M111.93,372c0,.15-13.76.27-30.74.27s-30.74-.12-30.74-.27,13.76-.28,30.74-.28S111.93,371.84,111.93,372Z" style="fill:#ebebeb"></path><path d="M82.47,66.27s-9.8,3-.76,24,15.58,31.63,15.58,31.63,1.53,4.85-2.5,5.32-12.71-1.51-14.8,3.25c-2.18,4.93,1.18,9.94,8.34,14.61s22.48,15.49,23.87,16.47,2.63,3.27-.07,4S89.58,167.1,90.5,176.5s23,19.14,25.42,20.25,2.91,2.19,2.62,3.53-7,1-12.62,1.4S93.82,203.63,94.8,209s13.67,17.38,46,22.73l15.16,1.5L165.1,221c17.9-27.48,17.61-44.93,14.31-49.29s-8.77-.62-12.91,3.24-8.38,9.05-9.56,8.37-1.63-1.81-.83-4.32,8.53-25.4,2.22-32.42-20.27,7.1-22.65,8.58-3.21-1-3-2.67,2.58-20.29,4-28.73,0-14.29-5.14-16c-4.93-1.67-9.33,6.07-12.39,8.72s-5.62-1.75-5.62-1.75-3.38-12-12.8-32.84S82.27,66.34,82.27,66.34" style="fill:#ebebeb"></path><path d="M156.53,236.87c-6.86-15.37-18.6-42.9-28.8-66.48s-19.44-44.9-26.23-60.31l-8-18.23c-.94-2.14-1.68-3.81-2.18-5l-.56-1.3-.18-.45a3.6,3.6,0,0,1,.22.43c.15.31.35.73.6,1.28l2.27,4.92c2,4.28,4.76,10.49,8.19,18.18,6.86,15.37,16.16,36.68,26.36,60.25s21.88,51.13,28.67,66.53" style="fill:#e0e0e0"></path><path d="M92,133.73a4.82,4.82,0,0,1,1,.37c.66.26,1.6.66,2.76,1.17,2.31,1,5.47,2.53,8.92,4.25l8.83,4.43,2.69,1.32a4.48,4.48,0,0,1,1,.53,5.06,5.06,0,0,1-1-.36c-.66-.26-1.6-.67-2.75-1.19-2.3-1.05-5.44-2.59-8.9-4.31l-8.86-4.36L93,134.27A5.14,5.14,0,0,1,92,133.73Z" style="fill:#e0e0e0"></path><path d="M118.32,144.9c-.12-.06,2.68-6.7,6.26-14.85s6.58-14.71,6.7-14.66-2.69,6.7-6.27,14.85S118.44,145,118.32,144.9Z" style="fill:#e0e0e0"></path><path d="M132.34,181.81a5.71,5.71,0,0,1,.68-.9l2-2.34c1.66-2,3.93-4.73,6.33-7.85s4.48-6,6-8.11l1.76-2.5a6.34,6.34,0,0,1,.69-.89,4.51,4.51,0,0,1-.54,1c-.37.62-.93,1.51-1.64,2.59-1.42,2.15-3.46,5.09-5.87,8.21s-4.72,5.85-6.44,7.78c-.87,1-1.58,1.73-2.08,2.24A5,5,0,0,1,132.34,181.81Z" style="fill:#e0e0e0"></path><path d="M106.33,177a4,4,0,0,1,1,.08l2.8.41c2.36.37,5.61.91,9.19,1.53s6.83,1.21,9.18,1.66l2.77.56a3.67,3.67,0,0,1,1,.27,4.48,4.48,0,0,1-1-.09l-2.79-.41c-2.36-.36-5.61-.9-9.2-1.53s-6.83-1.21-9.17-1.66l-2.77-.56A4.59,4.59,0,0,1,106.33,177Z" style="fill:#e0e0e0"></path><path d="M114.57,211.1a7.93,7.93,0,0,1,1.32.13l3.59.51c3,.45,7.2,1.11,11.8,1.86s8.77,1.47,11.78,2l3.56.66a7.19,7.19,0,0,1,1.29.31,8,8,0,0,1-1.32-.13l-3.59-.51c-3-.45-7.19-1.11-11.8-1.86s-8.76-1.46-11.78-2l-3.56-.66A6.24,6.24,0,0,1,114.57,211.1Z" style="fill:#e0e0e0"></path><path d="M147.15,216.21a9.89,9.89,0,0,1,.84-1.16l2.38-3.06c2-2.58,4.76-6.16,7.7-10.2s5.5-7.76,7.34-10.47c.89-1.3,1.62-2.38,2.18-3.21a9.19,9.19,0,0,1,.85-1.15,9.23,9.23,0,0,1-.69,1.25c-.47.79-1.17,1.91-2.06,3.29-1.77,2.76-4.29,6.52-7.24,10.57s-5.75,7.6-7.82,10.13c-1,1.27-1.9,2.28-2.5,3A8.1,8.1,0,0,1,147.15,216.21Z" style="fill:#e0e0e0"></path><path d="M374.8,275.76c-20.26-14.15-24.85-40.42-24.05-64,.13-3.94-.3-8.1,1.57-11.56s6.25-5.82,9.78-4.16c2.93,1.38,4.21,4.79,5.84,7.6a23,23,0,0,0,9.25,8.83c2.51,1.3,5.61,2.1,8.09.73,3.4-1.87,3.8-6.57,3.78-10.49q-.07-11-.14-21.92c0-3.92,0-7.92,1.18-11.64s3.92-7.18,7.65-8.22,8.34,1.1,9.12,4.94c.33,1.6,0,3.25.12,4.88s.86,3.43,2.41,3.88,3.13-.65,4.3-1.8c4.05-4,6.8-9.05,9.36-14.13s5.06-10.26,8.73-14.58,8.75-7.73,14.36-8.05,11.6,3.15,13,8.66-1.8,11.13-5.31,15.61a87.7,87.7,0,0,1-18.22,17.36c-1.24.88-2.58,1.83-3.05,3.28-.85,2.61,1.63,5.21,4.21,6.07,2.92,1,6.09.67,9.15,1s6.36,1.71,7.52,4.59c1.61,4-1.74,8.21-5,11a74.93,74.93,0,0,1-22.19,12.81c-2.88,1.05-5.92,2-8.24,4s-3.73,5.55-2.33,8.31,5,3.64,8,3.08,5.72-2.2,8.6-3.28c5.39-2,12.34-1.66,15.8,3,2.26,3.06,2.46,7.32,1.32,11s-3.48,6.79-5.95,9.69c-8.63,10.13-19.69,18.29-32.18,22.62s-24.08,5.51-36.5,1" style="fill:#f5f5f5"></path><path d="M374.49,293.27A172.51,172.51,0,0,1,380.9,261a349,349,0,0,1,13.94-37.82c1.41-3.28,2.79-6.53,4.16-9.72s2.74-6.36,4.26-9.37a177.92,177.92,0,0,1,9.75-16.8c3.36-5.19,6.74-10,9.93-14.47s6.26-8.57,9.21-12.19a140.48,140.48,0,0,1,15.18-16.05c1.93-1.74,3.48-3,4.54-3.92l1.21-1a2.51,2.51,0,0,1,.43-.32,3,3,0,0,1-.38.37l-1.17,1c-1,.91-2.54,2.25-4.44,4a149,149,0,0,0-15,16.17c-2.91,3.63-5.94,7.74-9.12,12.22s-6.52,9.29-9.85,14.48a177.29,177.29,0,0,0-9.68,16.76c-1.51,3-2.85,6.13-4.23,9.33s-2.75,6.44-4.16,9.72a359.36,359.36,0,0,0-14,37.72A174.72,174.72,0,0,0,375,293.32" style="fill:#e0e0e0"></path><path d="M403.47,204a8.14,8.14,0,0,1-.38-1.68c-.21-1.08-.45-2.66-.73-4.61-.55-3.9-1.14-9.32-1.75-15.29s-1.28-11.37-1.89-15.26c-.3-1.94-.56-3.51-.75-4.59a7.59,7.59,0,0,1-.22-1.7,8.16,8.16,0,0,1,.49,1.64c.28,1.07.61,2.63,1,4.57.74,3.87,1.48,9.28,2.1,15.26s1.13,11.23,1.55,15.31c.19,1.84.36,3.39.49,4.63A7.66,7.66,0,0,1,403.47,204Z" style="fill:#e0e0e0"></path><path d="M453.87,194.61a11.13,11.13,0,0,1-2,.24c-1.29.11-3.16.27-5.47.54-4.62.49-11,1.41-17.93,2.72s-13.22,2.79-17.71,4c-2.25.58-4.06,1.1-5.31,1.45a11.66,11.66,0,0,1-2,.49,10.27,10.27,0,0,1,1.88-.76c1.23-.43,3-1,5.26-1.67,4.47-1.33,10.73-2.88,17.71-4.21a177.61,177.61,0,0,1,18-2.52c2.32-.2,4.21-.28,5.51-.31A9.35,9.35,0,0,1,453.87,194.61Z" style="fill:#e0e0e0"></path><path d="M381.52,260s-.15-.2-.35-.61l-.86-1.82c-.74-1.59-1.76-3.92-3-6.8-2.43-5.78-5.54-13.86-8.85-22.82s-6.34-17.07-8.65-22.89l-2.75-6.88-.74-1.87a2.86,2.86,0,0,1-.21-.68,2.6,2.6,0,0,1,.34.62c.24.49.52,1.09.87,1.82.74,1.59,1.75,3.91,3,6.8,2.44,5.77,5.54,13.85,8.85,22.82s6.34,17.06,8.65,22.88l2.75,6.88c.3.75.54,1.37.74,1.88A3.19,3.19,0,0,1,381.52,260Z" style="fill:#e0e0e0"></path><path d="M448.49,238.45a2.59,2.59,0,0,1-.66.27l-1.95.65-7.17,2.33c-6.06,2-14.39,4.77-23.59,7.89s-17.58,5.85-23.67,7.69c-3.05.92-5.53,1.64-7.25,2.1l-2,.52a2.32,2.32,0,0,1-.7.13,3.15,3.15,0,0,1,.66-.27l1.94-.65,7.18-2.33c6.05-2,14.39-4.77,23.59-7.89s17.57-5.85,23.67-7.69c3.05-.92,5.52-1.64,7.24-2.1l2-.52A2.28,2.28,0,0,1,448.49,238.45Z" style="fill:#e0e0e0"></path></g><g id="freepik--Floor--inject-81"><path d="M470.24,454.64c0,.14-98.61.26-220.23.26s-220.25-.12-220.25-.26,98.59-.27,220.25-.27S470.24,454.49,470.24,454.64Z" style="fill:#263238"></path></g><g id="freepik--Plants--inject-81"><path d="M151.32,299.36c15.89-16,15.72-40.42,11.14-61.52-.77-3.53-1.06-7.34-3.31-10.14s-6.58-4.21-9.48-2.14c-2.41,1.72-3,5-4,7.79a21,21,0,0,1-6.87,9.46c-2,1.58-4.7,2.8-7.15,2-3.37-1.13-4.5-5.29-5.12-8.82q-1.72-9.87-3.47-19.73c-.62-3.53-1.26-7.13-3-10.28s-4.69-5.81-8.22-6.14-7.32,2.36-7.4,5.94a33.42,33.42,0,0,0,.7,4.41c.17,1.48-.22,3.22-1.53,3.88s-2.93-.07-4.17-.91c-4.29-2.9-7.59-7-10.73-11.17s-6.23-8.4-10.24-11.68-9.13-5.53-14.23-4.9-9.92,4.74-10.29,9.92,3.45,9.72,7.33,13.17a79.73,79.73,0,0,0,19.23,12.63,6.57,6.57,0,0,1,3.28,2.45c1.19,2.21-.61,4.95-2.79,6.15-2.47,1.35-5.37,1.6-8.06,2.42s-5.44,2.58-6,5.37c-.79,3.87,2.91,7.09,6.33,9a68.5,68.5,0,0,0,22,7.88c2.77.48,5.65.81,8.07,2.25s4.26,4.38,3.45,7.1-3.91,4.1-6.72,4.09-5.5-1-8.27-1.55c-5.18-.94-11.38.53-13.72,5.28-1.53,3.13-1,7,.61,10.09a26.13,26.13,0,0,0,6.94,7.73,68.84,68.84,0,0,0,32.65,15.07c11.94,1.85,22.55,1,33-5.11" style="fill:#FF725E"></path><path d="M154.46,315.05a156.79,156.79,0,0,0-11.05-28,321.36,321.36,0,0,0-18.74-31.73l-5.33-8.06c-1.76-2.65-3.51-5.27-5.37-7.72A161,161,0,0,0,102.45,226c-3.87-4.12-7.69-7.88-11.29-11.38s-7-6.69-10.29-9.46a125.8,125.8,0,0,0-16.28-11.94c-2-1.26-3.63-2.18-4.72-2.79l-1.25-.69a2.18,2.18,0,0,0-.44-.21,3,3,0,0,0,.41.27l1.21.75c1.08.64,2.66,1.6,4.66,2.89a134.24,134.24,0,0,1,16.11,12.08c3.22,2.79,6.62,6,10.21,9.49s7.38,7.3,11.23,11.42a161.09,161.09,0,0,1,11.45,13.48c1.85,2.45,3.57,5,5.33,7.7s3.53,5.34,5.34,8.06a329.18,329.18,0,0,1,18.74,31.63A160.2,160.2,0,0,1,154,315.18" style="fill:#263238"></path><path d="M113.78,239.54a6.57,6.57,0,0,0,.07-1.56c0-1,0-2.47-.1-4.27-.14-3.6-.51-8.57-.93-14s-.71-10.43-.8-14c0-1.79-.07-3.25-.08-4.25a6.29,6.29,0,0,0-.08-1.57,8,8,0,0,0-.17,1.56c-.08,1-.12,2.46-.13,4.26,0,3.61.18,8.59.61,14.08s.82,10.28,1.11,14c.13,1.68.23,3.1.31,4.25A6.72,6.72,0,0,0,113.78,239.54Z" style="fill:#263238"></path><path d="M66.91,239.33a11,11,0,0,0,1.85-.11c1.18-.11,2.89-.28,5-.41,4.23-.31,10.09-.53,16.57-.49s12.34.34,16.58.68c2.12.15,3.83.32,5,.43a8.86,8.86,0,0,0,1.85.11,11,11,0,0,0-1.82-.37c-1.17-.18-2.88-.43-5-.64-4.24-.46-10.12-.83-16.62-.88a162,162,0,0,0-16.61.69c-2.12.19-3.83.43-5,.62A8.85,8.85,0,0,0,66.91,239.33Z" style="fill:#263238"></path><path d="M142.7,286.32a3,3,0,0,0,.21-.61l.48-1.78c.4-1.55.93-3.81,1.55-6.6,1.24-5.6,2.71-13.37,4.22-22s2.91-16.38,4-22c.55-2.73,1-5,1.35-6.64.14-.72.26-1.32.36-1.81a2.77,2.77,0,0,0,.08-.64s-.1.2-.21.61l-.48,1.78c-.41,1.55-.94,3.8-1.56,6.6-1.24,5.59-2.71,13.37-4.22,22s-2.9,16.39-4,22c-.56,2.72-1,5-1.35,6.63-.15.73-.26,1.33-.36,1.81A2.82,2.82,0,0,0,142.7,286.32Z" style="fill:#263238"></path><path d="M78.93,277.88a3.16,3.16,0,0,0,.64.13l1.86.27,6.83.92c5.77.77,13.72,1.93,22.51,3.22s16.76,2.39,22.55,3c2.89.33,5.23.57,6.85.71l1.87.14a2.55,2.55,0,0,0,.66,0,2.19,2.19,0,0,0-.64-.14l-1.86-.27-6.83-.91c-5.77-.78-13.72-1.94-22.51-3.23s-16.76-2.39-22.54-3c-2.9-.33-5.24-.57-6.86-.71l-1.87-.14A1.86,1.86,0,0,0,78.93,277.88Z" style="fill:#263238"></path><path d="M333.32,118.08a11.14,11.14,0,0,0,3.83-10.5,14.8,14.8,0,0,0-6.37-9.48c-1.49-1-3.34-1.84-5.07-1.32a4.73,4.73,0,0,0-3.08,3.71,9.57,9.57,0,0,0,.58,5c1.89,5.48,4.73,10.43,10.11,12.61" style="fill:#455a64"></path><path d="M338.39,127.44a26.05,26.05,0,0,1,23-6c2.05.47,4.35,1.56,4.69,3.63s-1.52,3.84-3.34,4.89a22.23,22.23,0,0,1-24.6-2" style="fill:#455a64"></path><path d="M367.75,84.11a13,13,0,0,0-10.07,1.73,22.92,22.92,0,0,0-7.2,7.52c-3.63,5.73-4.9,13.42-5.06,20.19,7.51-.3,13.94-6.21,17-9.41,4.85-5.06,10.55-17.16,5.32-20" style="fill:#455a64"></path><path d="M327,137.67a26,26,0,0,0,1.87-2.83,47.52,47.52,0,0,0,4.24-12.07,24,24,0,0,0-.94-12.74,15.82,15.82,0,0,0-1.82-3.45c-.54-.75-.89-1.11-.93-1.08a33.2,33.2,0,0,1,2.25,4.72,25.14,25.14,0,0,1,.69,12.41,55.59,55.59,0,0,1-4,12" style="fill:#263238"></path><path d="M327,137.76l3.91-5c3.3-4.27,7.86-10.16,13-16.59s9.85-12.2,13.28-16.37l4.05-4.94a13.14,13.14,0,0,0,1.41-1.88A14.6,14.6,0,0,0,361,94.62c-1,1.11-2.46,2.75-4.23,4.79-3.54,4.07-8.33,9.79-13.46,16.23s-9.64,12.39-12.83,16.75c-1.59,2.18-2.86,4-3.72,5.2" style="fill:#263238"></path><path d="M356.71,125.87a4.79,4.79,0,0,0-1.31-.4,11,11,0,0,0-1.57-.3,19.19,19.19,0,0,0-2.11-.23,28.13,28.13,0,0,0-5.52.21A29.21,29.21,0,0,0,333.66,130a27.57,27.57,0,0,0-4.22,3.58,18.35,18.35,0,0,0-1.4,1.59,9.93,9.93,0,0,0-1,1.29c-.49.73-.42,1.07-.38,1.1a46.35,46.35,0,0,1,3.11-3.6,30.32,30.32,0,0,1,4.23-3.38,34.31,34.31,0,0,1,5.87-3,33.83,33.83,0,0,1,6.38-1.72,30.78,30.78,0,0,1,5.4-.37C354.79,125.56,356.68,126,356.71,125.87Z" style="fill:#263238"></path></g><g id="freepik--Device--inject-81"><path d="M298.42,454.51l-133.87-.62c-16.1-.07-29.09-13.54-29-30.09L137,78.94c.07-16.55,13.18-29.92,29.29-29.84l133.87.62c16.1.07,29.09,13.54,29,30.09l-1.46,344.86C327.64,441.22,314.53,454.59,298.42,454.51Z" style="fill:#263238"></path><path d="M318.55,364.13a2.95,2.95,0,1,1-2.94-2.95A2.95,2.95,0,0,1,318.55,364.13Z" style="fill:#e0e0e0"></path><path d="M315.61,370.6a20.26,20.26,0,0,1,0-6.47,20.26,20.26,0,0,1,0,6.47Z" style="fill:#e0e0e0"></path><path d="M302.83,61.1,276.06,61a6.65,6.65,0,0,0-6.53,6.77l0,4.85A6.65,6.65,0,0,1,263,79.37l-52.19-.24a6.66,6.66,0,0,1-6.47-6.83l0-4.85a6.65,6.65,0,0,0-6.47-6.83l-9.42,0L165,60.47a21.06,21.06,0,0,0-21.16,21l-1.43,337.89a21.06,21.06,0,0,0,21,21.16l137.81.64a21.07,21.07,0,0,0,21.16-21L323.8,82.26A21.08,21.08,0,0,0,302.83,61.1Z" style="fill:#fafafa"></path><path d="M151.58,327.74c1.18-.88,58.81-26.27,58.81-26.27l-67.32-33.58L142.84,322Z" style="fill:#ebebeb"></path><polygon points="155.1 266.85 204.21 241.89 151.44 212.63 143.3 214.67 143.1 262.01 155.1 266.85" style="fill:#FF725E"></polygon><polygon points="155.1 266.85 204.21 241.89 151.44 212.63 143.3 214.67 143.1 262.01 155.1 266.85" style="fill:#fff;opacity:0.7000000000000001"></polygon><polygon points="145.07 209.23 296.44 138.53 146.47 89.52 145.07 209.23" style="fill:#ebebeb"></polygon><polygon points="143.31 393.35 212.48 357.85 315.45 418.43 290.92 439.94 203.05 439.94 143.31 403.43 143.31 393.35" style="fill:#ebebeb"></polygon><polygon points="226.1 354.01 311.64 404.73 321.18 403.65 321.18 354.88 274.3 330.07 226.1 354.01" style="fill:#ebebeb"></polygon><polygon points="240.16 305.58 320.81 350.95 320.81 291.64 291.63 279.14 240.16 305.58" style="fill:#ebebeb"></polygon><polygon points="154.02 330.58 201.33 356.54 258.75 326.8 213.13 303.6 154.02 330.58" style="fill:#ebebeb"></polygon><polygon points="225.04 241.56 292.06 274.77 323.14 258.9 323.34 236.64 278.07 214.67 225.04 241.56" style="fill:#ebebeb"></polygon><polygon points="156.5 270.53 223.52 303.74 254.6 287.87 254.8 265.61 209.52 243.64 156.5 270.53" style="fill:#ebebeb"></polygon><polygon points="165.78 210.84 220.4 238.19 271.34 210.84 218.56 186.76 165.78 210.84" style="fill:#ebebeb"></polygon><path d="M271.34,385.62a6.72,6.72,0,0,1-1-.5l-2.82-1.59-10.85-6.27-40.16-23.55-.83-.49.86-.44L269.23,326v1.22l-39.34-21-1.24-.66,1.25-.66,54.64-28.68v1.39l-6.52-3.3-122.4-62.1-1.15-.58,1.17-.56,65-31,18-8.49,4.74-2.18,1.23-.54a2.18,2.18,0,0,1,.43-.15,1.62,1.62,0,0,1-.39.24l-1.18.62L238.78,172l-17.88,8.81-64.71,31.47V211.1l122.53,61.83,6.52,3.3,1.35.69-1.34.7-54.68,28.62v-1.32L269.86,326l1.16.62-1.17.59L217,353.73l0-.93,39.92,24,10.7,6.51,2.75,1.72A5.69,5.69,0,0,1,271.34,385.62Z" style="fill:#FF725E"></path><path d="M259.59,136.64c0-10-10.48-16.3-21.17-11.3a12.13,12.13,0,0,0-5.62,5.39c-2.69,5.21-1.5,11.16.93,16.1l8.32,21.08a3.58,3.58,0,0,0,6.68,0l8.15-21.19C259.71,140.24,259.59,136.64,259.59,136.64Zm-10,8.68c-7.19,4.18-14.47-3.54-10.53-11.16a6,6,0,0,1,2.28-2.42c7.19-4.18,14.47,3.54,10.53,11.16A6,6,0,0,1,249.55,145.32Z" style="fill:#FF725E"></path><polygon points="243.63 245.78 243.39 234 274.1 248.87 274.1 261.11 243.63 245.78" style="fill:#f5f5f5"></polygon><polygon points="274.1 248.87 312.24 229.92 312.24 243.11 274.1 261.11 274.1 248.87" style="fill:#e0e0e0"></polygon><polygon points="243.39 234 280.82 215.28 312.24 229.92 274.1 248.87 243.39 234" style="fill:#f5f5f5"></polygon><polygon points="247.4 239.09 247.4 244.8 250.4 246.15 250.4 240.69 247.4 239.09" style="fill:#fafafa"></polygon><polygon points="252.2 241.2 252.2 246.92 255.21 248.27 255.21 242.81 252.2 241.2" style="fill:#fafafa"></polygon><polygon points="147.01 171.45 147.01 156.12 183.36 173.73 183.36 188.21 147.01 171.45" style="fill:#e0e0e0"></polygon><polygon points="183.36 173.73 228.52 151.29 228.52 166.91 183.36 188.21 183.36 173.73" style="fill:#f5f5f5"></polygon><polygon points="147.01 156.12 191.31 133.97 228.52 151.29 183.36 173.73 147.01 156.12" style="fill:#fafafa"></polygon><polygon points="151.76 162.14 151.76 168.91 155.31 170.51 155.31 164.04 151.76 162.14" style="fill:#fafafa"></polygon><polygon points="157.44 164.65 157.44 171.41 161 173.02 161 166.55 157.44 164.65" style="fill:#fafafa"></polygon><path d="M256.59,299.59v12.08l13,6.39V305.58Z" style="fill:#e0e0e0"></path><polygon points="286.09 297.67 269.54 305.58 269.54 318.06 286.09 308.82 286.09 297.67" style="fill:#e0e0e0"></polygon><polygon points="256.59 299.59 272.99 291.64 286.09 297.67 269.54 305.58 256.59 299.59" style="fill:#f5f5f5"></polygon><polygon points="261.19 308.26 261.19 313.97 264.19 315.33 264.19 309.87 261.19 308.26" style="fill:#fafafa"></polygon><path d="M151.94,293.34v12.08l12.95,6.39V299.33Z" style="fill:#e0e0e0"></path><polygon points="181.45 291.42 164.89 299.33 164.89 311.81 181.45 302.57 181.45 291.42" style="fill:#e0e0e0"></polygon><polygon points="151.94 293.34 168.35 285.39 181.45 291.42 164.89 299.33 151.94 293.34" style="fill:#f5f5f5"></polygon><polygon points="156.54 302.01 156.54 307.72 159.54 309.08 159.54 303.62 156.54 302.01" style="fill:#fafafa"></polygon><path d="M205.65,213.6v12.09l12.95,6.39V219.6Z" style="fill:#f5f5f5"></path><polygon points="235.16 211.69 218.6 219.6 218.6 232.08 235.16 222.84 235.16 211.69" style="fill:#e0e0e0"></polygon><polygon points="205.65 213.6 222.06 205.66 235.16 211.69 218.6 219.6 205.65 213.6" style="fill:#f5f5f5"></polygon><polygon points="210.25 222.28 210.25 227.99 213.25 229.35 213.25 223.88 210.25 222.28" style="fill:#e0e0e0"></polygon><path d="M191.25,317.13v12.09l12.95,6.38V323.13Z" style="fill:#e0e0e0"></path><polygon points="220.76 315.21 204.21 323.13 204.21 335.6 220.76 326.37 220.76 315.21" style="fill:#ebebeb"></polygon><polygon points="191.25 317.13 207.66 309.19 220.76 315.21 204.21 323.13 191.25 317.13" style="fill:#f5f5f5"></polygon><polygon points="195.85 325.8 195.85 331.52 198.85 332.87 198.85 327.41 195.85 325.8" style="fill:#fafafa"></polygon><path d="M244.73,346.32v15.15L272,377.54V361.9Z" style="fill:#f5f5f5"></path><polygon points="292.79 350.72 272.03 361.9 272.03 377.54 292.79 365.96 292.79 350.72" style="fill:#e0e0e0"></polygon><polygon points="244.73 346.31 265.31 336.35 292.79 350.72 272.03 361.9 244.73 346.31" style="fill:#fafafa"></polygon><polygon points="255.04 360.33 255.04 367.49 258.81 369.75 258.81 362.67 255.04 360.33" style="fill:#fafafa"></polygon><path d="M179.06,377.5v15.15l27.3,16.08V393.08Z" style="fill:#e0e0e0"></path><polygon points="238.94 375.43 206.36 393.08 206.36 408.73 239.03 390.62 238.94 375.43" style="fill:#fafafa"></polygon><polygon points="179.06 377.5 213.52 360.81 239.03 375.49 206.36 393.08 179.06 377.5" style="fill:#f5f5f5"></polygon><polygon points="189.37 391.51 189.37 398.68 193.13 400.94 193.13 393.85 189.37 391.51" style="fill:#fafafa"></polygon><polygon points="282.4 320.85 282.4 381.36 299.44 390.17 299.44 328.9 282.4 320.85" style="fill:#f5f5f5"></polygon><polygon points="294.99 315.05 282.4 320.85 299.44 328.9 310.9 322.44 294.99 315.05" style="fill:#fafafa"></polygon><polygon points="299.44 328.9 299.44 390.17 309.81 384.59 310.9 322.44 299.44 328.9" style="fill:#e0e0e0"></polygon><polygon points="210.39 271.84 210.39 332.35 227.43 341.16 227.43 279.89 210.39 271.84" style="fill:#f5f5f5"></polygon><polygon points="222.97 266.03 210.39 271.84 227.43 279.89 238.89 273.43 222.97 266.03" style="fill:#fafafa"></polygon><polygon points="227.43 279.89 227.43 341.16 237.79 336.05 238.89 273.43 227.43 279.89" style="fill:#e0e0e0"></polygon><path d="M218.12,386.91v15.15l27.31,16.08V402.5Z" style="fill:#e0e0e0"></path><polygon points="266.18 391.32 245.43 402.5 245.43 418.14 266.18 406.56 266.18 391.32" style="fill:#fafafa"></polygon><polygon points="218.12 386.91 238.94 375.43 266.18 391.32 245.43 402.5 218.12 386.91" style="fill:#f5f5f5"></polygon><polygon points="228.43 400.92 228.43 408.09 232.2 410.35 232.2 403.26 228.43 400.92" style="fill:#fafafa"></polygon><polygon points="278.84 206.28 229.12 183.87 298.36 148.63 321.08 182.51 278.84 206.28" style="fill:#ebebeb"></polygon><polygon points="323.1 226.86 323.44 188.06 284.89 210 323.1 226.86" style="fill:#FF725E"></polygon><path d="M293.81,265.72a2.95,2.95,0,1,1-2.95-3A3,3,0,0,1,293.81,265.72Z" style="fill:#e0e0e0"></path><path d="M290.86,272.19a20.26,20.26,0,0,1,0-6.47,20.26,20.26,0,0,1,0,6.47Z" style="fill:#e0e0e0"></path><path d="M213.34,258.49a3,3,0,1,1-3-3A2.95,2.95,0,0,1,213.34,258.49Z" style="fill:#e0e0e0"></path><path d="M210.39,265a20.26,20.26,0,0,1,0-6.47,20.26,20.26,0,0,1,0,6.47Z" style="fill:#e0e0e0"></path><path d="M173.92,299.67a2.95,2.95,0,1,1-2.95-2.95A2.95,2.95,0,0,1,173.92,299.67Z" style="fill:#e0e0e0"></path><path d="M171,306.14a20.26,20.26,0,0,1,0-6.47,20.26,20.26,0,0,1,0,6.47Z" style="fill:#e0e0e0"></path><path d="M176.87,267.89a2.95,2.95,0,1,1-3-2.95A2.95,2.95,0,0,1,176.87,267.89Z" style="fill:#e0e0e0"></path><path d="M173.92,274.36a20.26,20.26,0,0,1,0-6.47,20.26,20.26,0,0,1,0,6.47Z" style="fill:#e0e0e0"></path><path d="M249.67,265a3,3,0,1,1-2.95-2.94A2.95,2.95,0,0,1,249.67,265Z" style="fill:#e0e0e0"></path><path d="M246.72,271.44a20.26,20.26,0,0,1,0-6.47,20.26,20.26,0,0,1,0,6.47Z" style="fill:#e0e0e0"></path><path d="M296.26,287.07a2.95,2.95,0,1,1-2.95-2.95A2.95,2.95,0,0,1,296.26,287.07Z" style="fill:#e0e0e0"></path><path d="M293.31,293.54a20.26,20.26,0,0,1,0-6.47,20.26,20.26,0,0,1,0,6.47Z" style="fill:#e0e0e0"></path><path d="M298.14,304.42a2.95,2.95,0,1,1-2.95-2.95A2.95,2.95,0,0,1,298.14,304.42Z" style="fill:#e0e0e0"></path><path d="M295.19,310.89a20.26,20.26,0,0,1,0-6.47,20.26,20.26,0,0,1,0,6.47Z" style="fill:#e0e0e0"></path><path d="M215.43,340.42a2.95,2.95,0,1,1-3-2.95A2.95,2.95,0,0,1,215.43,340.42Z" style="fill:#e0e0e0"></path><path d="M212.48,346.89a20.26,20.26,0,0,1,0-6.47,20.26,20.26,0,0,1,0,6.47Z" style="fill:#e0e0e0"></path><circle cx="309.39" cy="391.85" r="2.95" style="fill:#e0e0e0"></circle><path d="M309.39,398.32a20.26,20.26,0,0,1,0-6.47,20.26,20.26,0,0,1,0,6.47Z" style="fill:#e0e0e0"></path><path d="M256,424.11a3,3,0,1,1-2.95-2.95A2.95,2.95,0,0,1,256,424.11Z" style="fill:#e0e0e0"></path><path d="M253,430.58a20.26,20.26,0,0,1,0-6.47,20.26,20.26,0,0,1,0,6.47Z" style="fill:#e0e0e0"></path><path d="M233.26,415.2a2.95,2.95,0,1,1-2.95-2.95A2.95,2.95,0,0,1,233.26,415.2Z" style="fill:#e0e0e0"></path><path d="M230.31,421.67a20.26,20.26,0,0,1,0-6.47,19.52,19.52,0,0,1,0,6.47Z" style="fill:#e0e0e0"></path><path d="M285.35,408.73a3,3,0,1,1-3-3A2.95,2.95,0,0,1,285.35,408.73Z" style="fill:#e0e0e0"></path><path d="M282.4,415.2a20.26,20.26,0,0,1,0-6.47,20.26,20.26,0,0,1,0,6.47Z" style="fill:#e0e0e0"></path><circle cx="237.99" cy="351.92" r="2.95" style="fill:#e0e0e0"></circle><path d="M238,358.39a20.26,20.26,0,0,1,0-6.47,20.26,20.26,0,0,1,0,6.47Z" style="fill:#e0e0e0"></path><path d="M248.38,323.13a2.95,2.95,0,1,1-2.95-2.95A2.95,2.95,0,0,1,248.38,323.13Z" style="fill:#e0e0e0"></path><path d="M245.43,329.6a20.26,20.26,0,0,1,0-6.47,20.26,20.26,0,0,1,0,6.47Z" style="fill:#e0e0e0"></path><path d="M176.87,326.37a2.95,2.95,0,1,1-3-2.95A2.95,2.95,0,0,1,176.87,326.37Z" style="fill:#e0e0e0"></path><path d="M173.92,332.84a20.26,20.26,0,0,1,0-6.47,20.26,20.26,0,0,1,0,6.47Z" style="fill:#e0e0e0"></path><path d="M313.09,299.67a2.95,2.95,0,1,1-2.95-2.95A2.95,2.95,0,0,1,313.09,299.67Z" style="fill:#e0e0e0"></path><path d="M310.14,306.14a20.26,20.26,0,0,1,0-6.47,20.26,20.26,0,0,1,0,6.47Z" style="fill:#e0e0e0"></path><path d="M305.18,255.54a2.95,2.95,0,1,1-2.95-2.95A2.95,2.95,0,0,1,305.18,255.54Z" style="fill:#e0e0e0"></path><path d="M302.23,262a20.26,20.26,0,0,1,0-6.47,20.26,20.26,0,0,1,0,6.47Z" style="fill:#e0e0e0"></path><circle cx="242.5" cy="216.54" r="2.95" style="fill:#e0e0e0"></circle><path d="M242.5,223a19.52,19.52,0,0,1,0-6.47,20.26,20.26,0,0,1,0,6.47Z" style="fill:#e0e0e0"></path><path d="M189.05,272.19a2.95,2.95,0,1,1-3-2.95A2.95,2.95,0,0,1,189.05,272.19Z" style="fill:#e0e0e0"></path><path d="M186.1,278.66a20.26,20.26,0,0,1,0-6.47,19.52,19.52,0,0,1,0,6.47Z" style="fill:#e0e0e0"></path><path d="M223.71,195.49a3,3,0,1,1-3-3A2.95,2.95,0,0,1,223.71,195.49Z" style="fill:#e0e0e0"></path><path d="M220.76,202a20.26,20.26,0,0,1,0-6.47,20.26,20.26,0,0,1,0,6.47Z" style="fill:#e0e0e0"></path><path d="M283.86,189a2.95,2.95,0,1,1-2.95-3A2.95,2.95,0,0,1,283.86,189Z" style="fill:#e0e0e0"></path><path d="M280.91,195.49a20.26,20.26,0,0,1,0-6.47,20.26,20.26,0,0,1,0,6.47Z" style="fill:#e0e0e0"></path><path d="M300.49,186.3a3,3,0,1,1-2.95-3A2.95,2.95,0,0,1,300.49,186.3Z" style="fill:#e0e0e0"></path><path d="M297.54,192.77a20.26,20.26,0,0,1,0-6.47,20.26,20.26,0,0,1,0,6.47Z" style="fill:#e0e0e0"></path><path d="M293.81,164.54a2.95,2.95,0,1,1-2.95-2.95A3,3,0,0,1,293.81,164.54Z" style="fill:#e0e0e0"></path><path d="M290.86,171a20.26,20.26,0,0,1,0-6.47,20.26,20.26,0,0,1,0,6.47Z" style="fill:#e0e0e0"></path><path d="M201.18,214.67a2.95,2.95,0,1,1-3-2.95A2.95,2.95,0,0,1,201.18,214.67Z" style="fill:#e0e0e0"></path><path d="M198.23,221.14a20.26,20.26,0,0,1,0-6.47,20.26,20.26,0,0,1,0,6.47Z" style="fill:#e0e0e0"></path><path d="M269.74,186.76a3,3,0,1,1-2.95-2.95A2.95,2.95,0,0,1,269.74,186.76Z" style="fill:#e0e0e0"></path><path d="M266.79,193.23a20.26,20.26,0,0,1,0-6.47,20.26,20.26,0,0,1,0,6.47Z" style="fill:#e0e0e0"></path><path d="M186.91,120.32a3,3,0,1,1-2.95-2.95A2.95,2.95,0,0,1,186.91,120.32Z" style="fill:#e0e0e0"></path><path d="M184,126.78a10.35,10.35,0,0,1-.26-3.23,10.35,10.35,0,0,1,.26-3.23,10,10,0,0,1,.26,3.23A10,10,0,0,1,184,126.78Z" style="fill:#e0e0e0"></path><path d="M220.76,136.47a2.95,2.95,0,1,1-2.95-2.95A2.95,2.95,0,0,1,220.76,136.47Z" style="fill:#e0e0e0"></path><path d="M217.81,142.94a10.41,10.41,0,0,1-.26-3.23,10.45,10.45,0,0,1,.26-3.24,10.45,10.45,0,0,1,.26,3.24A10.41,10.41,0,0,1,217.81,142.94Z" style="fill:#e0e0e0"></path><path d="M167,187.49a3,3,0,1,1-3-3A2.95,2.95,0,0,1,167,187.49Z" style="fill:#e0e0e0"></path><path d="M164,194a20.26,20.26,0,0,1,0-6.47,20.26,20.26,0,0,1,0,6.47Z" style="fill:#e0e0e0"></path><path d="M169.91,139.42a3,3,0,1,1-2.95-2.95A2.95,2.95,0,0,1,169.91,139.42Z" style="fill:#e0e0e0"></path><path d="M167,145.89a10.06,10.06,0,0,1-.26-3.23,10.1,10.1,0,0,1,.26-3.24,10.45,10.45,0,0,1,.26,3.24A10.41,10.41,0,0,1,167,145.89Z" style="fill:#e0e0e0"></path><polygon points="296.86 276.97 321.18 264.08 321.08 287.33 296.86 276.97" style="fill:#ebebeb"></polygon><polygon points="195.85 359.41 142.57 386.91 142.57 335.6 148.47 332.97 195.85 359.41" style="fill:#ebebeb"></polygon><path d="M275.43,386.91a3.4,3.4,0,1,1-3.4-3.4A3.4,3.4,0,0,1,275.43,386.91Z" style="fill:#FF725E"></path><polygon points="306.54 144.22 323.51 149.38 323.51 176.12 306.54 144.22" style="fill:#ebebeb"></polygon><path d="M323.68,108.5l-.1-29.18A21.06,21.06,0,0,0,302.83,61.1L276.06,61a6.65,6.65,0,0,0-6.53,6.77l0,4.85A6.65,6.65,0,0,1,263,79.37l-52.19-.24a6.66,6.66,0,0,1-6.47-6.83l0-4.85a6.65,6.65,0,0,0-6.47-6.83l-9.42,0L165,60.47A21,21,0,0,0,150.75,66c-2.35,4.53-4.92,11-3.74,15.89l176.54,57.47Z" style="fill:#FF725E"></path><path d="M323.68,108.5l-.1-29.18A21.06,21.06,0,0,0,302.83,61.1L276.06,61a6.65,6.65,0,0,0-6.53,6.77l0,4.85A6.65,6.65,0,0,1,263,79.37l-52.19-.24a6.66,6.66,0,0,1-6.47-6.83l0-4.85a6.65,6.65,0,0,0-6.47-6.83l-9.42,0L165,60.47A21,21,0,0,0,150.75,66c-2.35,4.53-4.92,11-3.74,15.89l176.54,57.47Z" style="fill:#fff;opacity:0.7000000000000001"></path><path d="M302.83,61.1l.72,0a16.21,16.21,0,0,1,2.13.18,19.74,19.74,0,0,1,7.89,2.76A20.4,20.4,0,0,1,318.36,68a21.15,21.15,0,0,1,4,6.31,21.86,21.86,0,0,1,1.54,8.55q0,4.66,0,9.93c-.1,28.07-.24,68.68-.42,118.86s-.43,109.93-.69,176.28q0,12.43-.1,25.18,0,3.18,0,6.39a22.49,22.49,0,0,1-.84,6.41,21,21,0,0,1-2.71,5.92,22.48,22.48,0,0,1-4.4,4.84,21.27,21.27,0,0,1-12.16,4.67c-1.11.07-2.21.05-3.31.05l-3.3,0-6.63,0-26.83-.12L207.38,441l-28.16-.13L165,440.76a22.26,22.26,0,0,1-13.68-3.84A21.47,21.47,0,0,1,143,425.37a22.9,22.9,0,0,1-.85-7.12l0-7.1q.06-14.17.12-28.17.12-28,.23-55.07c.16-36.11.31-70.94.46-104.12s.29-64.7.42-94.21q.1-22.13.2-42.69c0-1.72,0-3.42,0-5.11,0-.85.08-1.71.13-2.56s.22-1.68.44-2.5a21.52,21.52,0,0,1,4.46-8.9,21.36,21.36,0,0,1,17.19-7.53l18.36.09,8.83,0,4.33,0a6.71,6.71,0,0,1,4.13,1.17A7,7,0,0,1,204.09,65a11.57,11.57,0,0,1,.41,4.16c0,.68,0,1.37,0,2a14.87,14.87,0,0,0,0,2,6.68,6.68,0,0,0,1.57,3.54,6.15,6.15,0,0,0,3.22,2,7.1,7.1,0,0,0,1.9.2h1.94l7.61,0,27.77.15,12.25.07c1,0,1.95,0,2.87,0a6.17,6.17,0,0,0,2.59-.9,6.69,6.69,0,0,0,3-4.24,12.21,12.21,0,0,0,.17-2.56c0-.85,0-1.69,0-2.52a13.33,13.33,0,0,1,.12-2.45,6.86,6.86,0,0,1,.8-2.25,6.59,6.59,0,0,1,3.37-3,10.58,10.58,0,0,1,4.18-.43l13.66.09,8.4.06,2.87,0s-1,0-2.87,0h-8.4l-13.66,0a10.16,10.16,0,0,0-4.12.43,6.46,6.46,0,0,0-3.28,2.88,6.94,6.94,0,0,0-.77,2.2,13.74,13.74,0,0,0-.11,2.42c0,.83,0,1.67,0,2.52a11.46,11.46,0,0,1-.18,2.6,6.85,6.85,0,0,1-3.06,4.38,6.37,6.37,0,0,1-2.67.94c-1,.08-1.92,0-2.9,0l-12.25,0-27.77-.11-7.61,0h-1.94a7.45,7.45,0,0,1-2-.2A6.57,6.57,0,0,1,205.87,77a7,7,0,0,1-1.64-3.71,15.7,15.7,0,0,1-.06-2.05v-2a11,11,0,0,0-.39-4,6.65,6.65,0,0,0-2.44-3.22,6.34,6.34,0,0,0-3.94-1.1l-4.33,0-8.83,0-18.37-.07A21,21,0,0,0,149,68.07a21.22,21.22,0,0,0-4.37,8.74c-.21.8-.28,1.64-.43,2.46s-.11,1.66-.12,2.51c0,1.69,0,3.4,0,5.11q-.09,20.53-.17,42.69c-.11,29.51-.24,61-.37,94.21s-.28,68-.43,104.12Q143,355,142.84,383q0,14-.11,28.17l0,7.11a22.43,22.43,0,0,0,.83,7,21,21,0,0,0,8.08,11.26A21.74,21.74,0,0,0,165,440.24l14.22.06,28.17.13,55.05.26,26.83.13,6.63,0,3.3,0c1.1,0,2.2,0,3.28-.05a20.78,20.78,0,0,0,11.88-4.56,22,22,0,0,0,4.3-4.73,20.68,20.68,0,0,0,2.65-5.77,21.84,21.84,0,0,0,.81-6.28q0-3.21,0-6.39.06-12.75.11-25.19c.31-66.34.58-126.09.8-176.27s.45-90.79.59-118.86q0-5.26.05-9.93a21.55,21.55,0,0,0-1.5-8.49,20.71,20.71,0,0,0-3.94-6.28,20.47,20.47,0,0,0-4.74-3.91,19.93,19.93,0,0,0-7.84-2.8,15.42,15.42,0,0,0-2.13-.2C303.07,61.13,302.83,61.1,302.83,61.1Z" style="fill:#263238"></path></g></svg>